<?xml version="1.0" encoding="utf-8"?>
<!-- Generator: Adobe Illustrator 26.0.1, SVG Export Plug-In . SVG Version: 6.00 Build 0)  -->
<svg version="1.0" id="Capa_1" xmlns="http://www.w3.org/2000/svg" xmlns:xlink="http://www.w3.org/1999/xlink" x="0px" y="0px"
	 viewBox="0 0 535.24 54.048" style="enable-background:new 0 0 535.24 54.048;" xml:space="preserve">
<style type="text/css">
	.st0{fill:#1C1C20;}
	.st1{fill-rule:evenodd;clip-rule:evenodd;fill:#FFFFFF;}
	.st2{fill-rule:evenodd;clip-rule:evenodd;fill:#F8BB00;}
	.st3{fill-rule:evenodd;clip-rule:evenodd;fill:#808082;}
</style>
<g id="Grupo_416" transform="translate(0 0)">
	<rect id="Rectángulo_259" class="st0" width="256.12" height="54.048"/>
	<g id="Grupo_390" transform="translate(15.905 12.52)">
		<path id="Trazado_49" class="st1" d="M217.385,17.078h2.751l4.175,11.6h-2.5l-0.771-2.429h-4.48l-0.769,2.429h-2.5l4.1-11.6
			H217.385z M218.798,19.391l-1.6,4.931h3.206l-1.6-4.931H218.798z M204.698,28.681v-11.6h2.371v9.425h5.639v2.178L204.698,28.681z
			 M194.833,28.681v-11.6h2.425v9.425h5.646v2.178L194.833,28.681z M183.869,28.681v-11.6h8.393v1.995h-6.022v2.5h5.512v1.981
			h-5.512v2.95h6.346v2.178L183.869,28.681z M176.246,28.681v-9.544h-3.464v-2.059h9.232v2.059h-3.407v9.544H176.246z
			 M162.246,28.681v-11.6h2.371v11.6H162.246z M150,28.681v-11.6h4.489c1.466-0.134,2.917,0.382,3.969,1.412
			c0.988,1.228,1.47,2.787,1.347,4.358c0.011,0.966-0.162,1.925-0.51,2.826c-0.267,0.769-0.759,1.441-1.411,1.928
			c-0.455,0.371-0.976,0.651-1.536,0.825c-0.821,0.179-1.66,0.264-2.5,0.254L150,28.681z M152.309,26.568h1.925
			c0.886,0.08,1.759-0.25,2.371-0.895c0.591-0.817,0.865-1.822,0.769-2.826c0.07-0.99-0.178-1.976-0.708-2.815
			c-0.518-0.66-1.344-1.001-2.177-0.9h-2.18v7.431V26.568z M130.29,22.848c-0.085-1.618,0.467-3.206,1.538-4.422
			c1.062-1.121,2.557-1.728,4.1-1.667c1.563-0.062,3.078,0.544,4.167,1.667c1.073,1.216,1.627,2.803,1.543,4.422
			c0.086,1.64-0.467,3.249-1.543,4.489c-1.088,1.124-2.604,1.732-4.167,1.671c-1.544,0.06-3.038-0.549-4.1-1.671
			C130.754,26.096,130.202,24.487,130.29,22.848z M132.724,22.848c-0.075,1.072,0.222,2.137,0.843,3.015
			c0.577,0.701,1.457,1.082,2.363,1.022c0.927,0.06,1.829-0.318,2.436-1.022c0.617-0.879,0.911-1.944,0.833-3.015
			c0.076-1.05-0.219-2.094-0.833-2.949c-0.6-0.719-1.501-1.117-2.436-1.078c-0.915-0.039-1.793,0.362-2.363,1.078
			C132.948,20.753,132.65,21.796,132.724,22.848z M123.179,28.681v-9.544h-3.466v-2.059h9.236v2.059h-3.4v9.544H123.179z
			 M112.735,17.081h2.751l4.164,11.6h-2.492l-0.776-2.429h-4.483l-0.772,2.429h-2.5L112.735,17.081z M114.144,19.394l-1.667,4.931
			h3.266L114.144,19.394L114.144,19.394z M97.986,17.023h2.442v7.3c-0.087,0.685,0.095,1.376,0.508,1.93
			c0.418,0.471,1.04,0.707,1.665,0.633c0.647,0.087,1.295-0.15,1.733-0.633c0.438-0.542,0.646-1.236,0.578-1.93v-7.3h2.367v7.567
			c0.087,1.213-0.358,2.405-1.219,3.264c-0.929,0.827-2.153,1.245-3.394,1.158c-1.262,0.098-2.51-0.32-3.459-1.158
			c-0.863-0.858-1.31-2.05-1.222-3.264L97.986,17.023L97.986,17.023z M95.679,24.647c-0.009,1.228-0.574,2.385-1.536,3.148
			c-0.996,0.852-2.282,1.288-3.591,1.217c-1.513,0.067-2.982-0.519-4.033-1.609c-0.987-1.306-1.487-2.916-1.413-4.551
			c-0.096-1.626,0.431-3.227,1.474-4.478c1.078-1.128,2.602-1.718,4.158-1.611c1.271-0.063,2.523,0.327,3.533,1.1
			c0.889,0.775,1.401,1.896,1.407,3.075h-2.365c-0.056-0.591-0.331-1.141-0.771-1.539c-0.53-0.358-1.161-0.536-1.8-0.508
			c-0.906-0.071-1.79,0.309-2.361,1.016c-1.116,1.808-1.116,4.092,0,5.9c0.546,0.711,1.416,1.096,2.309,1.024
			c0.644,0.027,1.276-0.175,1.785-0.571c0.495-0.401,0.817-0.976,0.9-1.608L95.679,24.647z M73.631,28.684v-11.6h5.639
			c0.983-0.078,1.962,0.198,2.76,0.777c0.673,0.651,1.025,1.566,0.963,2.5c-0.006,0.622-0.161,1.233-0.451,1.783
			c-0.323,0.444-0.771,0.781-1.287,0.968c0.449,0.143,0.835,0.437,1.091,0.833c0.247,0.518,0.359,1.091,0.324,1.664l0.063,1.413l0,0
			c0,0.7,0.2,1.152,0.448,1.279v0.384h-2.629c-0.063-0.188-0.129-0.384-0.191-0.637c0-0.252-0.063-0.516-0.063-0.836v-1.217
			c0.008-0.526-0.15-1.041-0.451-1.472c-0.353-0.298-0.813-0.437-1.272-0.385h-2.577v4.547L73.631,28.684z M75.997,22.145h2.827
			c0.479,0.027,0.954-0.106,1.349-0.38c0.293-0.312,0.452-0.726,0.441-1.154c0.01-0.428-0.149-0.843-0.441-1.156
			c-0.346-0.276-0.783-0.412-1.224-0.379h-2.953L75.997,22.145L75.997,22.145z M59.916,22.851c-0.085-1.619,0.468-3.207,1.54-4.422
			c1.089-1.121,2.604-1.728,4.166-1.667c1.543-0.061,3.037,0.547,4.1,1.667c1.071,1.217,1.622,2.804,1.537,4.422
			c0.088,1.639-0.463,3.248-1.537,4.489c-1.062,1.121-2.557,1.73-4.1,1.671c-1.563,0.059-3.077-0.548-4.166-1.671
			C60.38,26.099,59.828,24.49,59.916,22.851z M62.356,22.851c-0.057,1.079,0.26,2.144,0.9,3.015
			c1.235,1.309,3.298,1.368,4.607,0.133c0.046-0.043,0.09-0.087,0.133-0.133c0.64-0.87,0.958-1.936,0.9-3.015
			c0.057-1.058-0.262-2.103-0.9-2.949c-1.142-1.309-3.129-1.444-4.437-0.302c-0.108,0.094-0.209,0.195-0.303,0.302
			C62.619,20.749,62.3,21.793,62.356,22.851z M52.804,28.684V19.14H49.34v-2.059h9.3v2.059h-3.46v9.544H52.804z"/>
		<path id="Trazado_50" class="st1" d="M148.042,11.866v-11.6h4.428c1.395-0.068,2.751,0.472,3.719,1.479
			c0.913,1.188,1.366,2.667,1.276,4.163c0.099,1.588-0.378,3.158-1.345,4.422c-0.942,1.052-2.31,1.618-3.72,1.539L148.042,11.866z
			 M152.342,1.608h-2.689v8.845h2.689c0.996,0.061,1.964-0.34,2.625-1.087c0.656-1.008,0.971-2.199,0.9-3.4
			c0.064-1.139-0.252-2.267-0.9-3.206c-0.643-0.778-1.617-1.207-2.625-1.155V1.608z M136.06,11.866l4.3-11.6h1.731l4.3,11.6h-1.678
			l-1.219-3.464h-4.618l-1.213,3.464H136.06z M139.393,7.066h3.594l-1.8-5.131l-1.8,5.131H139.393z M125.616,11.866v-11.6h4.42
			c1.396-0.068,2.752,0.471,3.72,1.479c0.911,1.19,1.365,2.667,1.28,4.163c0.094,1.588-0.384,3.157-1.349,4.422
			c-0.941,1.05-2.307,1.616-3.714,1.539L125.616,11.866z M129.909,1.608h-2.696v8.845h2.691c0.995,0.06,1.964-0.341,2.625-1.087
			c0.655-1.008,0.971-2.199,0.9-3.4c0.064-1.139-0.253-2.267-0.9-3.206c-0.644-0.778-1.617-1.206-2.625-1.155L129.909,1.608z
			 M121.06,11.866v-11.6h1.606v11.6H121.06z M109.654,8.078h1.474c0.022,0.743,0.32,1.452,0.836,1.987
			c0.602,0.525,1.383,0.8,2.181,0.769c0.749,0.044,1.491-0.158,2.114-0.575c0.531-0.328,0.847-0.914,0.828-1.537
			c0-0.9-1.029-1.6-2.942-2.054c-0.138,0-0.2,0-0.259-0.06c-1.121-0.18-2.191-0.595-3.139-1.22
			c-0.535-0.518-0.819-1.243-0.776-1.987c-0.028-0.969,0.401-1.895,1.158-2.5c0.88-0.622,1.939-0.94,3.017-0.907
			c1.091-0.062,2.166,0.285,3.015,0.973c0.769,0.677,1.192,1.664,1.152,2.687l-1.545,0.069c0.001-0.68-0.276-1.33-0.767-1.8
			c-0.539-0.447-1.227-0.675-1.926-0.639c-0.657-0.033-1.308,0.146-1.855,0.511c-0.469,0.281-0.74,0.801-0.7,1.346
			c0,0.9,0.958,1.538,2.874,1.988c0.259,0.066,0.453,0.127,0.648,0.194h0.127c0.886,0.156,1.734,0.483,2.495,0.963
			c0.296,0.271,0.537,0.598,0.709,0.961c0.183,0.401,0.272,0.839,0.261,1.28c0.032,1.037-0.421,2.03-1.224,2.686
			c-0.92,0.688-2.053,1.029-3.2,0.962c-1.211,0.086-2.408-0.302-3.337-1.084c-0.792-0.802-1.23-1.888-1.217-3.015L109.654,8.078z
			 M99.018,0.259h4.483c0.534-0.006,1.067,0.038,1.593,0.129c0.335,0.064,0.66,0.172,0.967,0.32c0.455,0.26,0.832,0.635,1.093,1.089
			c0.271,0.538,0.402,1.135,0.383,1.736c0.1,1.132-0.548,2.196-1.6,2.626c0.391,0.079,0.736,0.306,0.964,0.634
			c0.244,0.455,0.374,0.963,0.381,1.479l0.135,1.917c-0.003,0.326,0.038,0.652,0.122,0.967c0.126,0.194,0.2,0.323,0.387,0.388v0.317
			h-1.792c-0.229-0.48-0.34-1.008-0.323-1.539v-0.064l-0.121-1.474c0.049-0.551-0.114-1.099-0.454-1.535
			c-0.673-0.268-1.399-0.377-2.121-0.321h-2.563v4.933h-1.531v-11.6L99.018,0.259z M100.549,1.67v3.9h2.7
			c0.71,0.044,1.419-0.11,2.047-0.443c0.452-0.404,0.69-0.996,0.642-1.6c0.053-0.556-0.159-1.104-0.574-1.478
			c-0.658-0.315-1.388-0.448-2.114-0.385L100.549,1.67z M88.242,11.861V0.26h8.271V1.74h-6.667v3.46h6.156v1.342h-6.156v3.909h6.793
			v1.414L88.242,11.861z M80.874,11.861l-4.168-11.6h1.664l3.338,9.745l3.2-9.745h1.667l-4.1,11.6H80.874z M73.437,11.861V0.26
			h1.541v11.6H73.437z M61.328,11.861V0.26h1.664l5.452,8.462c0.127,0.189,0.188,0.317,0.318,0.52
			c0.063,0.12,0.129,0.314,0.189,0.438V0.26h1.541v11.6h-1.729l-5.511-8.523c-0.106-0.114-0.193-0.243-0.259-0.383
			c-0.061-0.134-0.127-0.325-0.187-0.458v9.364H61.328z M49.34,7.5V0.258h1.605V7.5c-0.063,0.852,0.188,1.698,0.705,2.378
			c1.288,1.109,3.194,1.109,4.482,0c0.545-0.666,0.801-1.522,0.709-2.378V0.258h1.6V7.5c0.095,1.292-0.344,2.566-1.214,3.526
			c-0.979,0.833-2.246,1.246-3.528,1.15c-1.2,0.075-2.38-0.34-3.269-1.15c-0.784-1-1.171-2.253-1.089-3.521L49.34,7.5z"/>
		<g id="Grupo_389" transform="translate(0 0.152)">
			<path id="Trazado_51" class="st2" d="M33.555,0h8.105L28.667,28.537h-8.1L33.555,0z"/>
			<path id="Trazado_52" class="st2" d="M23.244,0h8.218L18.407,28.537h-8.086L23.244,0z"/>
			<path id="Trazado_53" class="st2" d="M12.993,0h8.1L8.101,28.537h-8.1L12.993,0z"/>
			<path id="Trazado_54" class="st3" d="M30.701,28.537L41.66,5.177v23.36H30.701z"/>
			<path id="Trazado_55" class="st3" d="M10.96,0L0,23.359V0H10.96z"/>
		</g>
	</g>
</g>
<g id="Grupo_415" transform="translate(279.12)">
	<rect id="Rectángulo_260" x="0" class="st0" width="256.12" height="54.048"/>
	<g id="Grupo_391" transform="translate(15.139 11.973)">
		<path id="Trazado_56" class="st1" d="M218.817,17.327h2.79l4.237,11.774h-2.543l-0.78-2.463h-4.548l-0.78,2.463h-2.54
			l4.165-11.774H218.817z M220.246,19.676l-1.626,5h3.254L220.246,19.676z M205.934,29.101V17.327h2.406v9.566h5.724v2.208H205.934z
			 M195.927,29.101V17.327h2.462v9.566h5.728v2.208H195.927z M184.799,29.101V17.327h8.521v2.024h-6.111v2.537h5.592v2.009h-5.592v3
			h6.438v2.208L184.799,29.101z M177.07,29.101v-9.685h-3.517v-2.089h9.368v2.089h-3.458v9.685H177.07z M162.865,29.101V17.327
			h2.408v11.774H162.865z M150.442,29.101V17.327h4.557c1.487-0.136,2.959,0.388,4.025,1.433c1.002,1.246,1.49,2.827,1.364,4.421
			c0.012,0.98-0.162,1.953-0.513,2.868c-0.27,0.781-0.77,1.463-1.433,1.956c-0.459,0.378-0.988,0.662-1.557,0.836
			c-0.832,0.181-1.682,0.268-2.533,0.26H150.442z M152.785,26.953h1.953c0.897,0.084,1.784-0.247,2.406-0.9
			c0.598-0.83,0.875-1.849,0.779-2.868c0.071-1.004-0.179-2.004-0.714-2.856c-0.528-0.666-1.365-1.01-2.209-0.909h-2.214v7.537
			L152.785,26.953z M130.444,23.181c-0.087-1.643,0.474-3.254,1.563-4.488c1.078-1.136,2.595-1.751,4.16-1.687
			c1.586-0.065,3.124,0.549,4.23,1.687c1.089,1.234,1.65,2.845,1.563,4.488c0.09,1.663-0.47,3.296-1.562,4.553
			c-1.104,1.143-2.642,1.762-4.23,1.7c-1.567,0.061-3.084-0.559-4.16-1.7c-1.092-1.257-1.652-2.89-1.562-4.553H130.444z
			 M132.915,23.181c-0.077,1.088,0.224,2.168,0.853,3.059c0.587,0.712,1.479,1.099,2.4,1.039c0.942,0.06,1.858-0.324,2.474-1.039
			c0.624-0.893,0.921-1.973,0.841-3.059c0.078-1.065-0.219-2.123-0.841-2.991c-0.608-0.732-1.523-1.139-2.474-1.1
			c-0.93-0.038-1.822,0.371-2.4,1.1C133.141,21.056,132.839,22.115,132.915,23.181z M123.228,29.101v-9.685h-3.511v-2.089h9.368
			v2.089h-3.446v9.685H123.228z M112.635,17.327h2.791l4.226,11.774h-2.535l-0.788-2.463h-4.548l-0.784,2.463h-2.536l4.171-11.774
			H112.635z M114.062,19.677l-1.69,5h3.311L114.062,19.677L114.062,19.677z M97.662,17.266h2.48v7.413
			c-0.088,0.695,0.097,1.397,0.515,1.959c0.424,0.477,1.055,0.716,1.688,0.64c0.655,0.089,1.312-0.15,1.757-0.64
			c0.444-0.551,0.655-1.254,0.587-1.959v-7.413h2.4v7.678c0.089,1.231-0.361,2.44-1.234,3.313c-0.943,0.839-2.184,1.263-3.443,1.175
			c-1.281,0.1-2.547-0.324-3.509-1.175c-0.878-0.87-1.332-2.08-1.243-3.313v-7.678H97.662z M95.32,25.006
			c-0.008,1.244-0.58,2.418-1.556,3.19c-1.012,0.866-2.318,1.309-3.648,1.236c-1.533,0.068-3.021-0.527-4.086-1.632
			c-1.005-1.324-1.514-2.958-1.438-4.619c-0.095-1.65,0.441-3.274,1.5-4.542c1.095-1.144,2.641-1.742,4.22-1.633
			c1.289-0.067,2.559,0.326,3.584,1.11c0.902,0.786,1.422,1.922,1.428,3.119h-2.4c-0.058-0.599-0.337-1.155-0.783-1.559
			c-0.537-0.364-1.177-0.544-1.825-0.515c-0.921-0.074-1.819,0.311-2.4,1.029c-1.128,1.835-1.128,4.15,0,5.985
			c0.554,0.722,1.438,1.114,2.345,1.039c0.652,0.028,1.293-0.176,1.809-0.576c0.502-0.408,0.831-0.991,0.919-1.632L95.32,25.006z
			 M72.948,29.106V17.332h5.725c0.998-0.079,1.99,0.201,2.8,0.789c0.684,0.661,1.041,1.59,0.976,2.539
			c-0.006,0.631-0.162,1.251-0.456,1.809c-0.326,0.452-0.781,0.794-1.305,0.983c0.456,0.144,0.848,0.443,1.107,0.845
			c0.25,0.526,0.363,1.107,0.328,1.689l0.064,1.435l0,0c0,0.708,0.2,1.164,0.454,1.294v0.391h-2.668
			c-0.064-0.19-0.128-0.391-0.192-0.648c0-0.257-0.065-0.524-0.065-0.846v-1.234c0.008-0.534-0.151-1.056-0.457-1.494
			c-0.359-0.303-0.828-0.444-1.295-0.389h-2.613v4.612L72.948,29.106z M75.348,22.469h2.868c0.486,0.028,0.968-0.107,1.369-0.383
			c0.301-0.315,0.463-0.738,0.45-1.173c0.01-0.436-0.152-0.857-0.45-1.175c-0.351-0.278-0.793-0.414-1.24-0.382h-3v3.113
			L75.348,22.469z M59.032,23.186c-0.087-1.643,0.474-3.255,1.564-4.488c1.107-1.137,2.644-1.75,4.229-1.687
			c1.565-0.063,3.08,0.552,4.159,1.687c1.089,1.233,1.65,2.845,1.561,4.488c0.092,1.663-0.468,3.296-1.561,4.553
			c-1.076,1.14-2.592,1.76-4.159,1.7c-1.587,0.06-3.125-0.558-4.229-1.7C59.502,26.482,58.942,24.849,59.032,23.186z M61.507,23.186
			c-0.06,1.094,0.262,2.176,0.91,3.059c1.249,1.327,3.337,1.391,4.665,0.142c0.049-0.046,0.096-0.094,0.142-0.142
			c0.651-0.882,0.974-1.964,0.914-3.059c0.058-1.074-0.266-2.133-0.914-2.991c-1.152-1.327-3.163-1.469-4.49-0.317
			c-0.113,0.098-0.219,0.204-0.317,0.317C61.771,21.054,61.449,22.113,61.507,23.186z M51.815,29.106v-9.685h-3.514v-2.089h9.436
			v2.089h-3.514v9.685H51.815z"/>
		<path id="Trazado_57" class="st1" d="M148.457,12.038V0.265h4.491c1.415-0.069,2.791,0.478,3.773,1.5
			c0.927,1.206,1.387,2.706,1.295,4.224c0.1,1.611-0.384,3.204-1.364,4.486c-0.954,1.068-2.344,1.643-3.774,1.561L148.457,12.038z
			 M152.816,1.63h-2.728v8.974h2.728c1.011,0.062,1.994-0.344,2.667-1.1c0.662-1.023,0.981-2.23,0.91-3.447
			c0.064-1.155-0.256-2.3-0.91-3.254C154.829,2.013,153.84,1.579,152.816,1.63L152.816,1.63z M136.298,12.038l4.361-11.773h1.755
			l4.36,11.773h-1.7l-1.236-3.513h-4.687l-1.231,3.513H136.298z M139.676,7.163h3.649L141.5,1.957L139.676,7.163L139.676,7.163z
			 M125.699,12.038V0.265h4.484c1.417-0.07,2.794,0.477,3.777,1.5c0.925,1.207,1.386,2.706,1.3,4.224
			c0.095,1.61-0.39,3.202-1.366,4.486c-0.955,1.065-2.342,1.64-3.771,1.561L125.699,12.038z M130.054,1.63h-2.73v8.974h2.73
			c1.01,0.061,1.992-0.344,2.665-1.1c0.665-1.022,0.984-2.23,0.912-3.447c0.066-1.156-0.255-2.301-0.912-3.254
			C132.065,2.014,131.078,1.579,130.054,1.63L130.054,1.63z M121.076,12.038V0.265h1.631v11.773H121.076z M109.503,8.198h1.5
			c0.025,0.754,0.327,1.472,0.848,2.017c0.611,0.533,1.403,0.813,2.214,0.782c0.759,0.044,1.512-0.161,2.144-0.583
			c0.538-0.333,0.859-0.927,0.842-1.56c0-0.916-1.045-1.627-2.986-2.084c-0.14,0-0.2,0-0.263-0.062
			c-1.138-0.18-2.224-0.603-3.185-1.239c-0.545-0.524-0.832-1.261-0.787-2.016c-0.027-0.981,0.407-1.918,1.173-2.532
			c0.893-0.632,1.968-0.955,3.062-0.921c1.107-0.063,2.198,0.289,3.059,0.987c0.781,0.686,1.21,1.689,1.166,2.728l-1.562,0.068
			c-0.001-0.689-0.283-1.348-0.781-1.825c-0.547-0.454-1.245-0.684-1.954-0.646c-0.667-0.035-1.328,0.146-1.883,0.517
			c-0.476,0.284-0.75,0.812-0.708,1.365c0,0.911,0.973,1.558,2.919,2.016c0.261,0.066,0.457,0.13,0.657,0.2h0.127
			c0.898,0.158,1.757,0.489,2.529,0.974c0.301,0.277,0.545,0.609,0.72,0.978c0.186,0.408,0.275,0.852,0.263,1.3
			c0.033,1.052-0.425,2.059-1.238,2.727c-0.935,0.698-2.086,1.044-3.251,0.976c-1.228,0.087-2.441-0.307-3.383-1.1
			c-0.804-0.815-1.249-1.917-1.237-3.062L109.503,8.198z M98.711,0.265h4.551c0.541-0.004,1.082,0.039,1.616,0.13
			c0.34,0.066,0.67,0.175,0.982,0.325c0.46,0.266,0.842,0.648,1.109,1.108c0.275,0.545,0.409,1.15,0.389,1.76
			c0.1,1.149-0.56,2.23-1.628,2.665c0.397,0.078,0.748,0.308,0.978,0.641c0.247,0.462,0.379,0.976,0.386,1.5l0.139,1.946
			c-0.004,0.33,0.038,0.659,0.125,0.978c0.125,0.2,0.2,0.329,0.389,0.4v0.321h-1.815c-0.236-0.486-0.349-1.021-0.331-1.561v-0.063
			l-0.124-1.5c0.05-0.559-0.114-1.116-0.458-1.559c-0.683-0.272-1.42-0.383-2.153-0.326h-2.6v5.005h-1.549V0.261L98.711,0.265z
			 M100.265,1.696v3.963H103c0.721,0.044,1.441-0.111,2.079-0.45c0.457-0.41,0.698-1.009,0.651-1.621
			c0.056-0.564-0.161-1.122-0.583-1.5c-0.667-0.321-1.408-0.456-2.146-0.393L100.265,1.696z M87.777,12.038V0.265h8.4v1.5H89.41
			v3.508h6.246v1.363H89.41v3.966h6.893v1.434L87.777,12.038z M80.303,12.038L76.074,0.265h1.687l3.385,9.887L84.4,0.265h1.688
			l-4.159,11.773H80.303z M72.757,12.038V0.265h1.562v11.773H72.757z M60.472,12.038V0.265h1.688l5.531,8.589
			c0.129,0.188,0.192,0.317,0.322,0.527c0.066,0.121,0.13,0.318,0.192,0.441V0.265h1.564v11.773h-1.752l-5.591-8.647
			C62.318,3.275,62.23,3.143,62.164,3c-0.064-0.135-0.128-0.327-0.191-0.461v9.5L60.472,12.038z M48.306,7.613V0.265h1.628v7.348
			c-0.063,0.865,0.192,1.723,0.718,2.412c1.307,1.127,3.241,1.127,4.548,0c0.555-0.674,0.815-1.544,0.72-2.412V0.265h1.622v7.348
			c0.095,1.31-0.35,2.602-1.232,3.576c-0.992,0.846-2.279,1.266-3.579,1.169c-1.219,0.077-2.416-0.345-3.318-1.169
			c-0.796-1.013-1.19-2.285-1.106-3.572L48.306,7.613z"/>
		<path id="Trazado_58" class="st1" d="M0,0.525v29.578h42.227V0.525H0z M1.539,1.884h10.294L1.539,23.827V1.884z M1.539,28.689
			L13.746,1.884h7.608l-12.2,26.805H1.539z M11.232,28.689L23.373,1.884h7.718L18.826,28.689H11.232z M40.673,28.689H30.379
			L40.673,6.747V28.689z M28.473,28.689h-7.609l12.2-26.805h7.613L28.473,28.689z"/>
	</g>
</g>
</svg>
