<?xml version="1.0" encoding="utf-8"?>
<!-- Generator: Adobe Illustrator 26.0.1, SVG Export Plug-In . SVG Version: 6.00 Build 0)  -->
<svg version="1.0" id="Capa_1" xmlns="http://www.w3.org/2000/svg" xmlns:xlink="http://www.w3.org/1999/xlink" x="0px" y="0px"
	 viewBox="0 0 124.206 124.206" style="enable-background:new 0 0 124.206 124.206;" xml:space="preserve">
<style type="text/css">
	.st0{fill:#010202;}
	.st1{fill:#FFFFFF;}
</style>
<g id="Grupo_410" transform="translate(0)">
	<path id="Trazado_87" class="st0" d="M118.028,62.105c-0.001,30.886-25.04,55.923-55.926,55.922
		C31.216,118.026,6.178,92.987,6.18,62.101C6.181,31.215,31.219,6.178,62.105,6.179c30.885,0,55.922,25.036,55.923,55.921
		C118.028,62.101,118.028,62.103,118.028,62.105"/>
	<g id="Grupo_407" transform="translate(18.149 21.645)">
		<path id="Trazado_88" class="st1" d="M27.329,9.63l6.46,31.167l-6.51,1.35l-0.684-3.3c-1.308,2.831-3.901,4.857-6.964,5.442
			c-6.154,1.276-11.647-2.793-13.116-9.885c-1.461-7.044,1.963-12.962,8.116-14.238c3.044-0.681,6.229,0.149,8.554,2.227
			l-2.366-11.414L27.329,9.63z M24.886,30.599c-0.8-3.836-3.813-6.046-7.245-5.335c-3.612,0.748-5.59,4-4.794,7.829
			c0.8,3.88,3.908,6.073,7.52,5.325C23.798,37.706,25.69,34.478,24.886,30.599L24.886,30.599z"/>
		<path id="Trazado_89" class="st1" d="M30.248,10.466c-0.379-1.952,0.895-3.841,2.847-4.221c1.952-0.379,3.841,0.895,4.221,2.847
			c0.373,1.918-0.852,3.783-2.761,4.203c-1.964,0.412-3.891-0.846-4.303-2.81C30.25,10.478,30.249,10.472,30.248,10.466z
			 M31.91,17.144l6.511-1.35l4.778,23.054l-6.512,1.349L31.91,17.144z"/>
	</g>
	<g id="Grupo_408" transform="translate(54.253 30.41)">
		<path id="Trazado_90" class="st1" d="M26.037,32.855c-1.222,1.569-2.951,2.665-4.891,3.1c-3.661,0.896-7.356-1.346-8.252-5.007
			c-0.049-0.199-0.089-0.401-0.119-0.604l-2.338-11.283L7.27,19.719l-1.09-5.263L9.346,13.8L8.034,7.469l6.242-1.294l1.312,6.332
			l5-1.034l1.09,5.261l-5,1.036l2.125,10.256c0.14,1.323,1.326,2.281,2.648,2.141c0.025-0.003,0.049-0.006,0.074-0.009
			c0.815-0.141,1.551-0.575,2.07-1.22L26.037,32.855z"/>
		<path id="Trazado_91" class="st1" d="M42.27,23.445l5.024,3.376c-1.608,2.566-5.281,4.814-8.67,5.518
			c-6.507,1.555-13.043-2.459-14.598-8.966c-0.05-0.21-0.095-0.422-0.134-0.634c-1.54-6.368,2.374-12.778,8.742-14.317
			c0.211-0.051,0.423-0.096,0.636-0.135c7.221-1.5,12.6,3.11,14.4,11.8l-16.632,3.448c1.163,2.358,3.785,3.618,6.353,3.053
			C39.334,26.142,41.061,25.03,42.27,23.445z M30.153,18.84l10.3-2.134c-0.989-2.182-3.409-3.331-5.725-2.72
			C32.315,14.446,30.47,16.404,30.153,18.84L30.153,18.84z"/>
	</g>
	<g id="Grupo_409" transform="translate(40.347 56.692)">
		<path id="Trazado_92" class="st1" d="M6.181,9.478l6.508-1.35l6.46,31.168l-6.511,1.35L6.181,9.478z"/>
		<path id="Trazado_93" class="st1" d="M15.587,7.527l6.511-1.348l6.457,31.169l-6.508,1.349L15.587,7.527z"/>
		<path id="Trazado_94" class="st1" d="M49.023,18.735l2.855,13.779l-6.285,1.3l-0.48-2.32c-1.377,2.222-3.621,3.767-6.189,4.259
			c-4.9,1.018-9.3-1.14-10.22-5.555c-0.942-4.549,2.646-8.547,8-9.657c2.022-0.39,4.098-0.411,6.128-0.061l-0.094-0.445
			c-0.507-2.452-2.468-4.278-6.257-3.493c-2.081,0.501-4.012,1.492-5.633,2.889l-3.083-3.873c2.631-2.215,5.752-3.77,9.105-4.536
			C42.887,9.777,47.775,12.716,49.023,18.735z M44.085,26.548l-0.444-2.14c-1.706-0.237-3.44-0.176-5.125,0.179
			c-2.365,0.49-3.951,2.259-3.564,4.132s2.28,2.691,4.509,2.229C41.96,30.43,44.082,28.782,44.085,26.548L44.085,26.548z"/>
	</g>
</g>
</svg>
