<?xml version="1.0" encoding="utf-8"?>
<!-- Generator: Adobe Illustrator 25.4.1, SVG Export Plug-In . SVG Version: 6.00 Build 0)  -->
<svg version="1.0" id="Capa_1" xmlns="http://www.w3.org/2000/svg" xmlns:xlink="http://www.w3.org/1999/xlink" x="0px" y="0px"
	 viewBox="0 0 552 180" style="enable-background:new 0 0 552 180;" xml:space="preserve">
<style type="text/css">
	.st0{fill:#1C1D20;}
	.st1{fill-rule:evenodd;clip-rule:evenodd;fill:#1C1D20;}
	.st2{fill-rule:evenodd;clip-rule:evenodd;fill:#F9BC02;}
	.st3{fill-rule:evenodd;clip-rule:evenodd;fill:#808083;}
</style>
<g id="Grupo_379" transform="translate(-265.079 -2154.548)">
	<g id="Rectángulo_255">
		<rect x="335.5" y="2198.853" class="st0" width="80.163" height="56.689"/>
	</g>
	<g id="Grupo_378" transform="translate(338.248 2156.983)">
		<g id="Trazado_21">
			<path class="st1" d="M389.986,74.944h4.935l7.489,20.815h-4.492l-1.386-4.353h-8.039l-1.379,4.357h-4.493l7.361-20.815
				L389.986,74.944z M392.52,79.093l-2.874,8.847h5.752L392.52,79.093z M367.22,95.759V74.944h4.253v16.907h10.116v3.908
				C381.589,95.759,367.22,95.759,367.22,95.759z M349.52,95.759V74.944h4.35v16.907h10.129v3.908
				C363.999,95.759,349.52,95.759,349.52,95.759z M329.849,95.759V74.944h15.057v3.579h-10.8v4.483h9.888v3.556h-9.892v5.291h11.385
				v3.908L329.849,95.759z M316.174,95.759V78.636h-6.214v-3.693h16.561v3.693h-6.111v17.123
				C320.41,95.759,316.174,95.759,316.174,95.759z M291.065,95.759V74.944h4.253v20.815H291.065z M269.097,95.759V74.944h8.054
				c3.214,0,5.624,0.816,7.12,2.531c1.63,1.726,2.417,4.378,2.417,7.82c0.019,1.733-0.291,3.453-0.914,5.07
				c-0.48,1.379-1.361,2.584-2.531,3.458c-0.815,0.666-1.752,1.168-2.757,1.48c-1.471,0.321-2.974,0.474-4.479,0.457L269.097,95.759
				z M273.241,91.969h3.452c1.588,0.145,3.154-0.445,4.253-1.6c0.915-1.041,1.38-2.649,1.38-5.07
				c0.127-1.776-0.318-3.545-1.269-5.05c-0.8-1.152-2.064-1.608-3.905-1.608h-3.91v13.333L273.241,91.969z M233.741,85.294
				c-0.153-2.904,0.838-5.751,2.76-7.933c1.907-2.012,4.589-3.102,7.359-2.991c2.804-0.113,5.523,0.975,7.475,2.991
				c1.925,2.18,2.919,5.028,2.768,7.933c0.155,2.942-0.837,5.829-2.768,8.054c-1.951,2.018-4.67,3.109-7.475,3
				c-2.771,0.108-5.453-0.986-7.359-3C234.574,91.121,233.584,88.234,233.741,85.294z M238.108,85.294
				c-0.135,1.923,0.399,3.834,1.512,5.409c1.036,1.258,2.614,1.941,4.24,1.833c1.664,0.108,3.282-0.571,4.371-1.833
				c1.107-1.577,1.635-3.488,1.495-5.409c0.137-1.883-0.392-3.755-1.494-5.288c-1.077-1.29-2.692-2.004-4.371-1.934
				c-1.641-0.07-3.217,0.649-4.24,1.934c-1.11,1.531-1.645,3.405-1.512,5.291L238.108,85.294z M220.985,95.759V78.636h-6.217v-3.693
				h16.564v3.693h-6.093v17.123H220.985z M202.25,74.944h4.934l7.471,20.815h-4.473l-1.393-4.357h-8.042l-1.385,4.357h-4.484
				l7.369-20.815H202.25z M204.775,79.093l-2.989,8.847h5.858L204.775,79.093L204.775,79.093z M175.791,74.84h4.381v13.1
				c0,1.618,0.215,2.763,0.91,3.461c0.75,0.844,1.866,1.268,2.988,1.134c1.5,0,2.531-0.332,3.109-1.134
				c0.786-0.973,1.159-2.216,1.037-3.461v-13.1h4.247v13.574c0.157,2.177-0.642,4.314-2.187,5.855
				c-1.667,1.485-3.862,2.234-6.089,2.078c-2.761,0-4.827-0.693-6.2-2.078c-1.55-1.539-2.351-3.677-2.193-5.855V74.84H175.791z
				 M171.652,88.518c-0.017,2.202-1.031,4.279-2.757,5.647c-1.787,1.528-4.095,2.31-6.443,2.182
				c-2.714,0.12-5.349-0.932-7.235-2.888c-1.77-2.343-2.667-5.231-2.534-8.165c0-3.441,0.927-6.2,2.646-8.034
				c1.722-1.961,4.25-2.89,7.46-2.89c2.279-0.115,4.525,0.582,6.338,1.967c1.594,1.391,2.514,3.4,2.525,5.516h-4.254
				c-0.099-1.061-0.592-2.046-1.383-2.76c-0.95-0.641-2.081-0.961-3.226-0.913c-1.627-0.128-3.212,0.554-4.237,1.823
				c-2.001,3.245-2.001,7.341,0,10.586c0.981,1.274,2.54,1.965,4.143,1.836c1.154,0.048,2.288-0.314,3.2-1.024
				c0.89-0.718,1.469-1.75,1.618-2.884L171.652,88.518z M132.099,95.76V74.945h10.115c1.764-0.14,3.52,0.354,4.952,1.393
				c1.21,1.17,1.842,2.813,1.729,4.492c-0.011,1.116-0.289,2.213-0.81,3.2c-0.579,0.796-1.383,1.4-2.309,1.735
				c0.806,0.256,1.498,0.785,1.957,1.495c0.443,0.93,0.643,1.957,0.581,2.985l0.115,2.534l0,0c0,1.259,0.351,2.065,0.8,2.293v0.688
				h-4.717c-0.114-0.339-0.232-0.688-0.343-1.142c0-0.453-0.115-0.926-0.115-1.5v-2.183c0.016-0.944-0.267-1.869-0.809-2.642
				c-0.634-0.534-1.459-0.784-2.283-0.691h-4.623v8.158C136.339,95.76,132.099,95.76,132.099,95.76z M136.342,84.03h5.072
				c0.861,0.05,1.713-0.19,2.421-0.682c0.527-0.559,0.812-1.304,0.793-2.072c0.016-0.769-0.268-1.513-0.793-2.075
				c-0.621-0.496-1.407-0.738-2.2-0.678h-5.3v5.506L136.342,84.03z M107.492,85.296c-0.153-2.904,0.839-5.752,2.763-7.933
				c1.954-2.012,4.671-3.099,7.474-2.991c2.771-0.11,5.454,0.98,7.363,2.991c1.92,2.183,2.909,5.03,2.756,7.933
				c0.157,2.94-0.831,5.826-2.756,8.054c-1.908,2.013-4.591,3.107-7.363,3c-2.804,0.104-5.52-0.986-7.474-3
				C108.326,91.124,107.335,88.237,107.492,85.296z M111.87,85.296c-0.105,1.934,0.462,3.845,1.606,5.409
				c2.219,2.347,5.921,2.451,8.268,0.231c0.079-0.075,0.157-0.152,0.232-0.231c1.148-1.562,1.719-3.473,1.615-5.409
				c0.102-1.899-0.47-3.772-1.615-5.291c-2.049-2.347-5.614-2.589-7.961-0.539c-0.192,0.167-0.372,0.348-0.539,0.539
				C112.336,81.525,111.767,83.399,111.87,85.296z M94.732,95.759V78.636h-6.214v-3.693h16.676v3.693h-6.208v17.123
				C98.986,95.759,94.732,95.759,94.732,95.759z"/>
		</g>
		<g id="Trazado_22">
			<path class="st1" d="M265.585,65.592V44.776h7.947c2.503-0.122,4.935,0.845,6.672,2.651c1.494,1.722,2.29,4.251,2.29,7.47
				c0,3.445-0.8,5.993-2.412,7.934c-1.69,1.887-4.146,2.903-6.675,2.761H265.585z M273.297,47.192h-4.824v15.867h4.824
				c1.786,0.11,3.524-0.609,4.711-1.949c1.175-1.809,1.74-3.947,1.612-6.1c0.116-2.043-0.451-4.066-1.612-5.751
				c-1.155-1.396-2.902-2.164-4.711-2.071V47.192z M244.088,65.592l7.713-20.816h3.1l7.706,20.816h-3l-2.186-6.214h-8.285
				l-2.176,6.214H244.088z M250.068,56.971h6.446l-3.226-9.2L250.068,56.971z M225.352,65.592V44.776h7.929
				c2.504-0.123,4.938,0.844,6.675,2.651c1.635,2.135,2.451,4.785,2.3,7.47c0,3.445-0.819,5.993-2.421,7.934
				c-1.688,1.883-4.139,2.899-6.664,2.761H225.352z M233.052,47.192h-4.827v15.867h4.827c1.786,0.108,3.523-0.611,4.711-1.949
				c1.172-1.81,1.735-3.948,1.607-6.1c0.116-2.042-0.449-4.065-1.607-5.751c-1.155-1.396-2.902-2.163-4.711-2.071V47.192z
				 M217.178,65.592V44.776h2.881v20.816H217.178z M196.716,58.802h2.645c0.04,1.333,0.575,2.604,1.5,3.565
				c1.08,0.942,2.48,1.436,3.912,1.38c1.343,0.078,2.674-0.284,3.793-1.031c0.953-0.588,1.52-1.64,1.487-2.76
				c0-1.615-1.847-2.872-5.28-3.683c-0.248,0-0.355,0-0.465-0.107c-2.868-0.7-4.711-1.375-5.629-2.189
				c-0.961-0.929-1.47-2.23-1.393-3.565c-0.048-1.736,0.721-3.394,2.077-4.478c1.578-1.117,3.477-1.689,5.41-1.629
				c1.958-0.111,3.887,0.511,5.411,1.746c1.38,1.214,2.139,2.985,2.066,4.821l-2.771,0.123c0.002-1.219-0.495-2.385-1.375-3.228
				c-0.968-0.802-2.202-1.212-3.457-1.147c-1.178-0.06-2.344,0.261-3.325,0.917c-0.842,0.502-1.328,1.436-1.256,2.413
				c0,1.61,1.719,2.76,5.156,3.567c0.463,0.119,0.812,0.228,1.162,0.348h0.228c1.59,0.279,3.111,0.866,4.476,1.729
				c0.532,0.487,0.964,1.073,1.273,1.724c0.327,0.719,0.487,1.504,0.467,2.294c0.056,1.861-0.757,3.643-2.2,4.82
				c-1.65,1.235-3.684,1.847-5.742,1.726c-2.172,0.155-4.319-0.543-5.984-1.946C197.48,62.773,196.693,60.825,196.716,58.802
				L196.716,58.802z M177.637,44.776h8.044c0.957-0.01,1.914,0.067,2.857,0.23c0.601,0.116,1.184,0.309,1.736,0.574
				c0.816,0.467,1.493,1.142,1.962,1.956c0.485,0.964,0.72,2.035,0.685,3.114c0.18,2.031-0.986,3.941-2.874,4.71
				c0.702,0.142,1.321,0.55,1.729,1.138c0.438,0.817,0.672,1.727,0.685,2.654l0.241,3.44c-0.006,0.585,0.068,1.168,0.219,1.734
				c0.228,0.348,0.356,0.579,0.695,0.7v0.569h-3.214c-0.412-0.86-0.612-1.807-0.581-2.761v-0.115l-0.217-2.645
				c0.087-0.988-0.204-1.972-0.816-2.753c-1.206-0.48-2.506-0.677-3.8-0.576h-4.6v8.85h-2.746V44.779L177.637,44.776z
				 M180.383,47.308v7h4.839c1.274,0.079,2.544-0.196,3.672-0.794c0.81-0.724,1.236-1.784,1.151-2.867
				c0.096-0.997-0.286-1.981-1.03-2.652c-1.18-0.564-2.49-0.802-3.793-0.69L180.383,47.308z M158.305,65.592V44.776h14.843v2.651
				h-11.962v6.209h11.046v2.407h-11.046v7.012h12.188v2.536L158.305,65.592z M145.087,65.592l-7.476-20.816h2.984l5.99,17.482
				l5.748-17.482h2.992l-7.36,20.816H145.087z M131.745,65.592V44.776h2.763v20.816H131.745z M110.023,65.592V44.776h2.985
				l9.78,15.18c0.228,0.339,0.338,0.569,0.57,0.934c0.114,0.216,0.231,0.564,0.339,0.786v-16.9h2.763v20.816h-3.1l-9.887-15.29
				c-0.189-0.204-0.345-0.436-0.463-0.687c-0.111-0.24-0.229-0.583-0.335-0.821v16.8L110.023,65.592z M88.516,57.768V44.776h2.88
				v12.992c-0.113,1.529,0.337,3.046,1.266,4.265c2.31,1.991,5.73,1.991,8.04,0c0.92-0.927,1.272-2.307,1.272-4.265V44.776h2.867
				v12.992c0,2.758-0.684,4.824-2.179,6.325c-1.374,1.376-3.575,2.065-6.329,2.065c-2.154,0.135-4.271-0.61-5.865-2.065
				C89.208,62.716,88.517,60.526,88.516,57.768C88.517,57.768,88.516,57.768,88.516,57.768z"/>
		</g>
		<g id="Grupo_377" transform="translate(0 0.272)">
			<g id="Trazado_23">
				<path class="st2" d="M60.198,44.305h14.54l-23.31,51.2h-14.53L60.198,44.305z"/>
			</g>
			<g id="Trazado_24">
				<path class="st2" d="M41.699,44.305h14.742l-23.421,51.2H18.513L41.699,44.305z"/>
			</g>
			<g id="Trazado_25">
				<path class="st2" d="M23.308,44.305h14.534l-23.306,51.2H0L23.308,44.305z"/>
			</g>
			<g id="Trazado_26">
				<path class="st3" d="M55.078,95.5l19.66-41.907V95.5H55.078z"/>
			</g>
			<g id="Trazado_27">
				<path class="st3" d="M19.662,44.305L0,86.211V44.305H19.662z"/>
			</g>
		</g>
	</g>
</g>
</svg>
